<svg width="45" height="32" viewBox="0 0 45 32" fill="none" xmlns="http://www.w3.org/2000/svg">
<g clip-path="url(#clip0)">
<path d="M44.5953 8.48343C44.5953 8.8634 44.2868 9.17234 43.907 9.17234C43.5259 9.17234 43.217 8.8634 43.217 8.48343C43.217 8.10251 43.526 7.79443 43.907 7.79443C44.2868 7.79451 44.5953 8.10259 44.5953 8.48343ZM44.5062 8.48343C44.5062 8.15405 44.2358 7.87599 43.907 7.87599C43.5772 7.87599 43.307 8.15405 43.307 8.48343C43.307 8.8117 43.5771 9.09031 43.907 9.09031C44.2358 9.09031 44.5062 8.8117 44.5062 8.48343ZM43.9008 8.54565H43.7752V8.8634H43.6889V8.09992H43.9336C44.0603 8.09992 44.1697 8.19562 44.1697 8.32534C44.1697 8.43982 44.0973 8.50983 43.9965 8.53811L44.188 8.8634H44.0892L43.9008 8.54565ZM44.0838 8.32542C44.0838 8.24127 44.0153 8.17849 43.9231 8.17849H43.7752V8.46983H43.9231C44.0153 8.46983 44.0838 8.40886 44.0838 8.32542Z" fill="#3D9E36"/>
<path d="M31.9664 0.904541C31.9664 0.904541 42.2859 2.19374 41.5811 10.5178L36.7913 5.71358L37.7665 9.11502C37.7666 9.11502 33.0233 10.7518 31.9664 0.904541Z" fill="#3D9E36"/>
<path d="M33.3145 17.4599C33.3145 13.3507 30.98 10.8725 26.9486 10.8725C26.2054 10.8725 24.0783 11.2666 23.4132 11.3375L25.5437 14.6441C25.9121 14.5722 26.285 14.5363 26.6518 14.5363C28.1351 14.5363 28.1351 16.1659 28.1351 17.7536C23.0994 17.8302 18.1443 19.6762 18.1443 24.6737C18.1443 26.7385 19.1782 28.4104 20.734 29.2953C22.1025 30.0765 23.949 30.222 25.9121 30.222H35.4934V27.339L33.3146 26.4857V17.4599H33.3145ZM28.135 26.4857H27.056C26.2474 26.4857 25.3944 26.4483 24.7965 26.2235C24.0575 25.9306 23.5812 25.1145 23.5812 24.1149C23.5812 21.7141 25.6172 20.6791 28.135 20.5612V26.4857ZM10.0597 11.2276C8.35638 11.2276 7.1357 12.0021 6.35862 12.8907V5.17285C4.5617 5.33589 2.83776 5.71374 1.21667 6.25423V22.734C1.21667 27.9129 3.80788 30.9484 8.98873 30.9484C14.4611 30.9484 17.3086 26.0268 17.3086 20.8514C17.3086 15.8898 14.8336 11.2276 10.0597 11.2276ZM8.98873 27.2508C6.94948 27.2508 6.43178 25.3977 6.43178 23.2202V16.1892C7.06105 15.5913 7.95017 14.9242 8.98873 14.9242C11.3916 14.9242 11.8368 18.1097 11.8368 20.9933C11.8368 23.9143 11.3916 27.2508 8.98873 27.2508ZM43.7028 17.3502V17.0712C43.5554 13.1987 41.2575 10.8724 37.3546 10.8724C36.615 10.8724 34.4892 11.2665 33.8231 11.3374L35.9478 14.644C36.3207 14.5721 36.6894 14.5362 37.0582 14.5362C38.3319 14.5362 38.5091 15.7409 38.5339 17.0883C38.5365 21.1989 38.5365 26.0475 38.5365 30.2047H43.7145C43.7145 26.0531 43.7057 21.4285 43.7028 17.3502Z" fill="#114A13"/>
</g>
<defs>
<clipPath id="clip0">
<rect width="44" height="30.6429" fill="white" transform="translate(0.90625 0.605225)"/>
</clipPath>
</defs>
</svg>
